<svg width="93" height="85" viewBox="0 0 93 85" fill="none" xmlns="http://www.w3.org/2000/svg">
<circle cx="27.4727" cy="22.4727" r="2.47273" fill="#0077B5" fill-opacity="0.1"/>
<circle cx="37.9818" cy="22.4728" r="2.47273" fill="#0077B5" fill-opacity="0.1"/>
<circle cx="48.4909" cy="22.4728" r="2.47273" fill="#0077B5" fill-opacity="0.1"/>
<circle cx="59" cy="22.4728" r="2.47273" fill="#0077B5" fill-opacity="0.1"/>
<circle cx="69.5091" cy="22.4728" r="2.47273" fill="#0077B5" fill-opacity="0.1"/>
<circle cx="80.0182" cy="22.4728" r="2.47273" fill="#0077B5" fill-opacity="0.1"/>
<circle cx="90.5273" cy="22.4728" r="2.47273" fill="#0077B5" fill-opacity="0.1"/>
<circle cx="27.4727" cy="39.1273" r="2.47273" fill="#0077B5" fill-opacity="0.1"/>
<circle cx="37.9818" cy="39.1273" r="2.47273" fill="#0077B5" fill-opacity="0.1"/>
<circle cx="48.4909" cy="39.1273" r="2.47273" fill="#0077B5" fill-opacity="0.1"/>
<circle cx="59" cy="39.1273" r="2.47273" fill="#0077B5" fill-opacity="0.1"/>
<circle cx="69.5091" cy="39.1273" r="2.47273" fill="#0077B5" fill-opacity="0.1"/>
<circle cx="80.0182" cy="39.1273" r="2.47273" fill="#0077B5" fill-opacity="0.1"/>
<circle cx="90.5273" cy="39.1273" r="2.47273" fill="#0077B5" fill-opacity="0.1"/>
<circle cx="27.4727" cy="47.7818" r="2.47273" fill="#0077B5" fill-opacity="0.1"/>
<circle cx="37.9818" cy="47.7819" r="2.47273" fill="#0077B5" fill-opacity="0.1"/>
<circle cx="48.4909" cy="47.7819" r="2.47273" fill="#0077B5" fill-opacity="0.1"/>
<circle cx="59" cy="47.7819" r="2.47273" fill="#0077B5" fill-opacity="0.1"/>
<circle cx="69.5091" cy="47.7819" r="2.47273" fill="#0077B5" fill-opacity="0.1"/>
<circle cx="80.0182" cy="47.7819" r="2.47273" fill="#0077B5" fill-opacity="0.1"/>
<circle cx="90.5273" cy="47.7819" r="2.47273" fill="#0077B5" fill-opacity="0.1"/>
<circle cx="27.4727" cy="56.4364" r="2.47273" fill="#0077B5" fill-opacity="0.1"/>
<circle cx="37.9818" cy="56.4364" r="2.47273" fill="#0077B5" fill-opacity="0.1"/>
<circle cx="48.4909" cy="56.4364" r="2.47273" fill="#0077B5" fill-opacity="0.1"/>
<circle cx="59" cy="56.4364" r="2.47273" fill="#0077B5" fill-opacity="0.1"/>
<circle cx="69.5091" cy="56.4364" r="2.47273" fill="#0077B5" fill-opacity="0.1"/>
<circle cx="80.0182" cy="56.4364" r="2.47273" fill="#0077B5" fill-opacity="0.1"/>
<circle cx="90.5273" cy="56.4364" r="2.47273" fill="#0077B5" fill-opacity="0.1"/>
<circle cx="27.4727" cy="65.0909" r="2.47273" fill="#0077B5" fill-opacity="0.1"/>
<circle cx="37.9818" cy="65.091" r="2.47273" fill="#0077B5" fill-opacity="0.1"/>
<circle cx="48.4909" cy="65.091" r="2.47273" fill="#0077B5" fill-opacity="0.1"/>
<circle cx="59" cy="65.091" r="2.47273" fill="#0077B5" fill-opacity="0.1"/>
<circle cx="69.5091" cy="65.091" r="2.47273" fill="#0077B5" fill-opacity="0.1"/>
<circle cx="80.0182" cy="65.091" r="2.47273" fill="#0077B5" fill-opacity="0.1"/>
<circle cx="90.5273" cy="65.091" r="2.47273" fill="#0077B5" fill-opacity="0.1"/>
<circle cx="27.4727" cy="73.7454" r="2.47273" fill="#0077B5" fill-opacity="0.1"/>
<circle cx="37.9818" cy="73.7454" r="2.47273" fill="#0077B5" fill-opacity="0.1"/>
<circle cx="48.4909" cy="73.7454" r="2.47273" fill="#0077B5" fill-opacity="0.1"/>
<circle cx="59" cy="73.7454" r="2.47273" fill="#0077B5" fill-opacity="0.1"/>
<circle cx="69.5091" cy="73.7454" r="2.47273" fill="#0077B5" fill-opacity="0.1"/>
<circle cx="80.0182" cy="73.7454" r="2.47273" fill="#0077B5" fill-opacity="0.1"/>
<circle cx="90.5273" cy="73.7454" r="2.47273" fill="#0077B5" fill-opacity="0.1"/>
<circle cx="27.4727" cy="82.4" r="2.47273" fill="#0077B5" fill-opacity="0.1"/>
<circle cx="37.9818" cy="82.3999" r="2.47273" fill="#0077B5" fill-opacity="0.1"/>
<circle cx="48.4909" cy="82.3999" r="2.47273" fill="#0077B5" fill-opacity="0.1"/>
<circle cx="59" cy="82.3999" r="2.47273" fill="#0077B5" fill-opacity="0.1"/>
<circle cx="69.5091" cy="82.3999" r="2.47273" fill="#0077B5" fill-opacity="0.1"/>
<circle cx="80.0182" cy="82.3999" r="2.47273" fill="#0077B5" fill-opacity="0.1"/>
<circle cx="90.5273" cy="82.3999" r="2.47273" fill="#0077B5" fill-opacity="0.1"/>
<circle cx="27.4727" cy="30.4727" r="2.47273" fill="#0077B5" fill-opacity="0.1"/>
<circle cx="37.9818" cy="30.4727" r="2.47273" fill="#0077B5" fill-opacity="0.1"/>
<circle cx="48.4909" cy="30.4727" r="2.47273" fill="#0077B5" fill-opacity="0.1"/>
<circle cx="59" cy="30.4727" r="2.47273" fill="#0077B5" fill-opacity="0.1"/>
<circle cx="69.5091" cy="30.4727" r="2.47273" fill="#0077B5" fill-opacity="0.1"/>
<circle cx="80.0182" cy="30.4727" r="2.47273" fill="#0077B5" fill-opacity="0.1"/>
<circle cx="90.5273" cy="30.4727" r="2.47273" fill="#0077B5" fill-opacity="0.1"/>
<rect width="75.5027" height="75.5027" rx="20" fill="#9B51E0"/>
<g clip-path="url(#clip0_35_155)">
<path d="M53.0541 37.8108H39.4324V31H36.027V37.8108H22.4054C21.5025 37.8117 20.6369 38.1708 19.9984 38.8092C19.36 39.4477 19.0009 40.3133 19 41.2162V48.027H22.4054V41.2162H36.027V48.027H39.4324V41.2162H53.0541V48.027H56.4595V41.2162C56.4586 40.3133 56.0995 39.4477 55.461 38.8092C54.8226 38.1708 53.9569 37.8117 53.0541 37.8108V37.8108Z" fill="white"/>
<path d="M44.0541 26.027V12.4054H30.4324V26.027H44.0541ZM33.8378 22.6216V15.8108H40.6487V22.6216H33.8378Z" fill="white"/>
<path d="M55.1833 53.0016C54.1303 53.0047 53.1041 53.3338 52.2456 53.9435C51.3871 54.5532 50.7383 55.4138 50.3885 56.407H42.9511C42.6044 55.4117 41.9565 54.549 41.0973 53.9385C40.2381 53.328 39.2103 53 38.1563 53C37.1023 53 36.0745 53.328 35.2153 53.9385C34.3561 54.549 33.7082 55.4117 33.3615 56.407H25.9241C25.5224 55.2709 24.7321 54.3135 23.6927 53.7038C22.6534 53.0941 21.4319 52.8714 20.2443 53.0752C19.0567 53.2789 17.9793 53.896 17.2027 54.8173C16.426 55.7385 16 56.9047 16 58.1097C16 59.3147 16.426 60.4809 17.2027 61.4022C17.9793 62.3234 19.0567 62.9405 20.2443 63.1443C21.4319 63.348 22.6534 63.1254 23.6927 62.5157C24.7321 61.906 25.5224 60.9485 25.9241 59.8124H33.3615C33.7082 60.8077 34.3561 61.6705 35.2153 62.2809C36.0745 62.8914 37.1023 63.2194 38.1563 63.2194C39.2103 63.2194 40.2381 62.8914 41.0973 62.2809C41.9565 61.6705 42.6044 60.8077 42.9511 59.8124H50.3885C50.7022 60.693 51.2519 61.4704 51.9775 62.0598C52.7031 62.6491 53.5768 63.0276 54.503 63.154C55.4292 63.2803 56.3724 63.1497 57.2293 62.7763C58.0863 62.4029 58.8242 61.8012 59.3623 61.0368C59.9004 60.2724 60.2181 59.3749 60.2806 58.4421C60.3431 57.5094 60.148 56.5775 59.7167 55.7482C59.2854 54.9188 58.6344 54.224 57.8349 53.7396C57.0354 53.2552 56.1181 52.9999 55.1833 53.0016ZM21.1293 59.8124C20.7925 59.8124 20.4633 59.7126 20.1833 59.5255C19.9033 59.3384 19.685 59.0724 19.5562 58.7613C19.4273 58.4502 19.3936 58.1078 19.4593 57.7775C19.525 57.4472 19.6871 57.1439 19.9253 56.9057C20.1634 56.6676 20.4668 56.5054 20.7971 56.4397C21.1274 56.374 21.4697 56.4078 21.7809 56.5366C22.092 56.6655 22.3579 56.8837 22.545 57.1637C22.7321 57.4438 22.832 57.773 22.832 58.1097C22.832 58.5613 22.6526 58.9944 22.3333 59.3137C22.0139 59.633 21.5809 59.8124 21.1293 59.8124ZM38.1563 59.8124C37.8195 59.8124 37.4903 59.7126 37.2103 59.5255C36.9303 59.3384 36.7121 59.0724 36.5832 58.7613C36.4543 58.4502 36.4206 58.1078 36.4863 57.7775C36.552 57.4472 36.7142 57.1439 36.9523 56.9057C37.1904 56.6676 37.4938 56.5054 37.8241 56.4397C38.1544 56.374 38.4968 56.4078 38.8079 56.5366C39.119 56.6655 39.3849 56.8837 39.572 57.1637C39.7591 57.4438 39.859 57.773 39.859 58.1097C39.859 58.5613 39.6796 58.9944 39.3603 59.3137C39.041 59.633 38.6079 59.8124 38.1563 59.8124ZM55.1833 59.8124C54.8466 59.8124 54.5174 59.7126 54.2373 59.5255C53.9573 59.3384 53.7391 59.0724 53.6102 58.7613C53.4814 58.4502 53.4476 58.1078 53.5133 57.7775C53.579 57.4472 53.7412 57.1439 53.9793 56.9057C54.2175 56.6676 54.5208 56.5054 54.8511 56.4397C55.1814 56.374 55.5238 56.4078 55.8349 56.5366C56.146 56.6655 56.412 56.8837 56.5991 57.1637C56.7862 57.4438 56.886 57.773 56.886 58.1097C56.886 58.5613 56.7066 58.9944 56.3873 59.3137C56.068 59.633 55.6349 59.8124 55.1833 59.8124Z" fill="white"/>
</g>
<defs>
<clipPath id="clip0_35_155">
<rect width="54.4865" height="54.4865" fill="white" transform="translate(11 9)"/>
</clipPath>
</defs>
</svg>
