<svg width="97" height="83" viewBox="0 0 97 83" fill="none" xmlns="http://www.w3.org/2000/svg">
<circle cx="31.0187" cy="27.6727" r="2.47273" fill="#0077B5" fill-opacity="0.1"/>
<circle cx="41.5278" cy="27.6727" r="2.47273" fill="#0077B5" fill-opacity="0.1"/>
<circle cx="52.0369" cy="27.6727" r="2.47273" fill="#0077B5" fill-opacity="0.1"/>
<circle cx="62.546" cy="27.6727" r="2.47273" fill="#0077B5" fill-opacity="0.1"/>
<circle cx="73.0551" cy="27.6727" r="2.47273" fill="#0077B5" fill-opacity="0.1"/>
<circle cx="83.5642" cy="27.6727" r="2.47273" fill="#0077B5" fill-opacity="0.1"/>
<circle cx="94.0732" cy="27.6727" r="2.47273" fill="#0077B5" fill-opacity="0.1"/>
<circle cx="31.0187" cy="36.3272" r="2.47273" fill="#0077B5" fill-opacity="0.1"/>
<circle cx="41.5278" cy="36.3273" r="2.47273" fill="#0077B5" fill-opacity="0.1"/>
<circle cx="52.0369" cy="36.3273" r="2.47273" fill="#0077B5" fill-opacity="0.1"/>
<circle cx="62.546" cy="36.3273" r="2.47273" fill="#0077B5" fill-opacity="0.1"/>
<circle cx="73.0551" cy="36.3273" r="2.47273" fill="#0077B5" fill-opacity="0.1"/>
<circle cx="83.5642" cy="36.3273" r="2.47273" fill="#0077B5" fill-opacity="0.1"/>
<circle cx="94.0732" cy="36.3273" r="2.47273" fill="#0077B5" fill-opacity="0.1"/>
<circle cx="31.0187" cy="44.9818" r="2.47273" fill="#0077B5" fill-opacity="0.1"/>
<circle cx="41.5278" cy="44.9818" r="2.47273" fill="#0077B5" fill-opacity="0.1"/>
<circle cx="52.0369" cy="44.9818" r="2.47273" fill="#0077B5" fill-opacity="0.1"/>
<circle cx="62.546" cy="44.9818" r="2.47273" fill="#0077B5" fill-opacity="0.1"/>
<circle cx="73.0551" cy="44.9818" r="2.47273" fill="#0077B5" fill-opacity="0.1"/>
<circle cx="83.5642" cy="44.9818" r="2.47273" fill="#0077B5" fill-opacity="0.1"/>
<circle cx="94.0732" cy="44.9818" r="2.47273" fill="#0077B5" fill-opacity="0.1"/>
<circle cx="31.0187" cy="53.6363" r="2.47273" fill="#0077B5" fill-opacity="0.1"/>
<circle cx="41.5278" cy="53.6364" r="2.47273" fill="#0077B5" fill-opacity="0.1"/>
<circle cx="52.0369" cy="53.6364" r="2.47273" fill="#0077B5" fill-opacity="0.1"/>
<circle cx="62.546" cy="53.6364" r="2.47273" fill="#0077B5" fill-opacity="0.1"/>
<circle cx="73.0551" cy="53.6364" r="2.47273" fill="#0077B5" fill-opacity="0.1"/>
<circle cx="83.5642" cy="53.6364" r="2.47273" fill="#0077B5" fill-opacity="0.1"/>
<circle cx="94.0732" cy="53.6364" r="2.47273" fill="#0077B5" fill-opacity="0.1"/>
<circle cx="31.0187" cy="62.2908" r="2.47273" fill="#0077B5" fill-opacity="0.1"/>
<circle cx="41.5278" cy="62.2909" r="2.47273" fill="#0077B5" fill-opacity="0.1"/>
<circle cx="52.0369" cy="62.2909" r="2.47273" fill="#0077B5" fill-opacity="0.1"/>
<circle cx="62.546" cy="62.2909" r="2.47273" fill="#0077B5" fill-opacity="0.1"/>
<circle cx="73.0551" cy="62.2909" r="2.47273" fill="#0077B5" fill-opacity="0.1"/>
<circle cx="83.5642" cy="62.2909" r="2.47273" fill="#0077B5" fill-opacity="0.1"/>
<circle cx="94.0732" cy="62.2909" r="2.47273" fill="#0077B5" fill-opacity="0.1"/>
<circle cx="31.0187" cy="70.9454" r="2.47273" fill="#0077B5" fill-opacity="0.1"/>
<circle cx="41.5278" cy="70.9453" r="2.47273" fill="#0077B5" fill-opacity="0.1"/>
<circle cx="52.0369" cy="70.9453" r="2.47273" fill="#0077B5" fill-opacity="0.1"/>
<circle cx="62.546" cy="70.9453" r="2.47273" fill="#0077B5" fill-opacity="0.1"/>
<circle cx="73.0551" cy="70.9453" r="2.47273" fill="#0077B5" fill-opacity="0.1"/>
<circle cx="83.5642" cy="70.9453" r="2.47273" fill="#0077B5" fill-opacity="0.1"/>
<circle cx="94.0732" cy="70.9453" r="2.47273" fill="#0077B5" fill-opacity="0.1"/>
<circle cx="31.0187" cy="79.5999" r="2.47273" fill="#0077B5" fill-opacity="0.1"/>
<circle cx="41.5278" cy="79.5999" r="2.47273" fill="#0077B5" fill-opacity="0.1"/>
<circle cx="52.0369" cy="79.5999" r="2.47273" fill="#0077B5" fill-opacity="0.1"/>
<circle cx="62.546" cy="79.5999" r="2.47273" fill="#0077B5" fill-opacity="0.1"/>
<circle cx="73.0551" cy="79.5999" r="2.47273" fill="#0077B5" fill-opacity="0.1"/>
<circle cx="83.5642" cy="79.5999" r="2.47273" fill="#0077B5" fill-opacity="0.1"/>
<circle cx="94.0732" cy="79.5999" r="2.47273" fill="#0077B5" fill-opacity="0.1"/>
<rect width="75.5027" height="75.5027" rx="23.3514" fill="#0077B5"/>
<g clip-path="url(#clip0_35_299)">
<path d="M29.2969 48.198L31.7969 45.074L23.7489 38.636L31.7969 32.198L29.2969 29.074L19.2969 37.074C19.0626 37.2613 18.8734 37.499 18.7434 37.7694C18.6135 38.0398 18.546 38.3359 18.546 38.636C18.546 38.936 18.6135 39.2321 18.7434 39.5025C18.8734 39.7729 19.0626 40.0106 19.2969 40.198L29.2969 48.198ZM47.7969 29.074L45.2969 32.198L53.3449 38.636L45.2969 45.074L47.7969 48.198L57.7969 40.198C58.0312 40.0106 58.2204 39.7729 58.3503 39.5025C58.4803 39.2321 58.5478 38.936 58.5478 38.636C58.5478 38.3359 58.4803 38.0398 58.3503 37.7694C58.2204 37.499 58.0312 37.2613 57.7969 37.074L47.7969 29.074ZM44.4989 21.068L36.4989 57.068L32.5929 56.2L40.5929 20.2L44.4989 21.068Z" fill="white"/>
</g>
<defs>
<clipPath id="clip0_35_299">
<rect width="48.4139" height="48.4139" fill="white" transform="translate(13.8326 13.8326)"/>
</clipPath>
</defs>
</svg>
