<svg width="97" height="83" viewBox="0 0 97 83" fill="none" xmlns="http://www.w3.org/2000/svg">
<circle cx="31.0187" cy="28.5455" r="2.47273" fill="#0077B5" fill-opacity="0.1"/>
<circle cx="41.5278" cy="28.5455" r="2.47273" fill="#0077B5" fill-opacity="0.1"/>
<circle cx="52.0369" cy="28.5455" r="2.47273" fill="#0077B5" fill-opacity="0.1"/>
<circle cx="62.546" cy="28.5455" r="2.47273" fill="#0077B5" fill-opacity="0.1"/>
<circle cx="73.0551" cy="28.5455" r="2.47273" fill="#0077B5" fill-opacity="0.1"/>
<circle cx="83.5642" cy="28.5455" r="2.47273" fill="#0077B5" fill-opacity="0.1"/>
<circle cx="94.0732" cy="28.5455" r="2.47273" fill="#0077B5" fill-opacity="0.1"/>
<circle cx="31.0187" cy="37.2" r="2.47273" fill="#0077B5" fill-opacity="0.1"/>
<circle cx="41.5278" cy="37.2" r="2.47273" fill="#0077B5" fill-opacity="0.1"/>
<circle cx="52.0369" cy="37.2" r="2.47273" fill="#0077B5" fill-opacity="0.1"/>
<circle cx="62.546" cy="37.2" r="2.47273" fill="#0077B5" fill-opacity="0.1"/>
<circle cx="73.0551" cy="37.2" r="2.47273" fill="#0077B5" fill-opacity="0.1"/>
<circle cx="83.5642" cy="37.2" r="2.47273" fill="#0077B5" fill-opacity="0.1"/>
<circle cx="94.0732" cy="37.2" r="2.47273" fill="#0077B5" fill-opacity="0.1"/>
<circle cx="31.0187" cy="45.8546" r="2.47273" fill="#0077B5" fill-opacity="0.1"/>
<circle cx="41.5278" cy="45.8546" r="2.47273" fill="#0077B5" fill-opacity="0.1"/>
<circle cx="52.0369" cy="45.8546" r="2.47273" fill="#0077B5" fill-opacity="0.1"/>
<circle cx="62.546" cy="45.8546" r="2.47273" fill="#0077B5" fill-opacity="0.1"/>
<circle cx="73.0551" cy="45.8546" r="2.47273" fill="#0077B5" fill-opacity="0.1"/>
<circle cx="83.5642" cy="45.8546" r="2.47273" fill="#0077B5" fill-opacity="0.1"/>
<circle cx="94.0732" cy="45.8546" r="2.47273" fill="#0077B5" fill-opacity="0.1"/>
<circle cx="31.0187" cy="54.5091" r="2.47273" fill="#0077B5" fill-opacity="0.1"/>
<circle cx="41.5278" cy="54.5091" r="2.47273" fill="#0077B5" fill-opacity="0.1"/>
<circle cx="52.0369" cy="54.5091" r="2.47273" fill="#0077B5" fill-opacity="0.1"/>
<circle cx="62.546" cy="54.5091" r="2.47273" fill="#0077B5" fill-opacity="0.1"/>
<circle cx="73.0551" cy="54.5091" r="2.47273" fill="#0077B5" fill-opacity="0.1"/>
<circle cx="83.5642" cy="54.5091" r="2.47273" fill="#0077B5" fill-opacity="0.1"/>
<circle cx="94.0732" cy="54.5091" r="2.47273" fill="#0077B5" fill-opacity="0.1"/>
<circle cx="31.0187" cy="63.1636" r="2.47273" fill="#0077B5" fill-opacity="0.1"/>
<circle cx="41.5278" cy="63.1636" r="2.47273" fill="#0077B5" fill-opacity="0.1"/>
<circle cx="52.0369" cy="63.1636" r="2.47273" fill="#0077B5" fill-opacity="0.1"/>
<circle cx="62.546" cy="63.1636" r="2.47273" fill="#0077B5" fill-opacity="0.1"/>
<circle cx="73.0551" cy="63.1636" r="2.47273" fill="#0077B5" fill-opacity="0.1"/>
<circle cx="83.5642" cy="63.1636" r="2.47273" fill="#0077B5" fill-opacity="0.1"/>
<circle cx="94.0732" cy="63.1636" r="2.47273" fill="#0077B5" fill-opacity="0.1"/>
<circle cx="31.0187" cy="71.8182" r="2.47273" fill="#0077B5" fill-opacity="0.1"/>
<circle cx="41.5278" cy="71.8181" r="2.47273" fill="#0077B5" fill-opacity="0.1"/>
<circle cx="52.0369" cy="71.8181" r="2.47273" fill="#0077B5" fill-opacity="0.1"/>
<circle cx="62.546" cy="71.8181" r="2.47273" fill="#0077B5" fill-opacity="0.1"/>
<circle cx="73.0551" cy="71.8181" r="2.47273" fill="#0077B5" fill-opacity="0.1"/>
<circle cx="83.5642" cy="71.8181" r="2.47273" fill="#0077B5" fill-opacity="0.1"/>
<circle cx="94.0732" cy="71.8181" r="2.47273" fill="#0077B5" fill-opacity="0.1"/>
<circle cx="31.0187" cy="80.4727" r="2.47273" fill="#0077B5" fill-opacity="0.1"/>
<circle cx="41.5278" cy="80.4727" r="2.47273" fill="#0077B5" fill-opacity="0.1"/>
<circle cx="52.0369" cy="80.4727" r="2.47273" fill="#0077B5" fill-opacity="0.1"/>
<circle cx="62.546" cy="80.4727" r="2.47273" fill="#0077B5" fill-opacity="0.1"/>
<circle cx="73.0551" cy="80.4727" r="2.47273" fill="#0077B5" fill-opacity="0.1"/>
<circle cx="83.5642" cy="80.4727" r="2.47273" fill="#0077B5" fill-opacity="0.1"/>
<circle cx="94.0732" cy="80.4727" r="2.47273" fill="#0077B5" fill-opacity="0.1"/>
<rect y="0.872803" width="75.5027" height="75.5027" rx="23.3514" fill="#27AE60"/>
<g clip-path="url(#clip0_35_371)">
<path d="M55.3476 19.0728V32.3575H43.3093V44.0532H31.156V55.7015H18.546V59.0728H34.331V47.3981H46.5076V35.7042H58.546V19.0728H55.3476Z" fill="white"/>
</g>
<defs>
<clipPath id="clip0_35_371">
<rect width="48.4139" height="48.4139" fill="white" transform="translate(13.8326 14.7053)"/>
</clipPath>
</defs>
</svg>
