<svg width="93" height="86" viewBox="0 0 93 86" fill="none" xmlns="http://www.w3.org/2000/svg">
<circle cx="27.4727" cy="23.3455" r="2.47273" fill="#0077B5" fill-opacity="0.1"/>
<circle cx="37.9818" cy="23.3455" r="2.47273" fill="#0077B5" fill-opacity="0.1"/>
<circle cx="48.4909" cy="23.3455" r="2.47273" fill="#0077B5" fill-opacity="0.1"/>
<circle cx="59" cy="23.3455" r="2.47273" fill="#0077B5" fill-opacity="0.1"/>
<circle cx="69.5091" cy="23.3455" r="2.47273" fill="#0077B5" fill-opacity="0.1"/>
<circle cx="80.0182" cy="23.3455" r="2.47273" fill="#0077B5" fill-opacity="0.1"/>
<circle cx="90.5273" cy="23.3455" r="2.47273" fill="#0077B5" fill-opacity="0.1"/>
<circle cx="27.4727" cy="40.0001" r="2.47273" fill="#0077B5" fill-opacity="0.1"/>
<circle cx="37.9818" cy="40.0001" r="2.47273" fill="#0077B5" fill-opacity="0.1"/>
<circle cx="48.4909" cy="40.0001" r="2.47273" fill="#0077B5" fill-opacity="0.1"/>
<circle cx="59" cy="40.0001" r="2.47273" fill="#0077B5" fill-opacity="0.1"/>
<circle cx="69.5091" cy="40.0001" r="2.47273" fill="#0077B5" fill-opacity="0.1"/>
<circle cx="80.0182" cy="40.0001" r="2.47273" fill="#0077B5" fill-opacity="0.1"/>
<circle cx="90.5273" cy="40.0001" r="2.47273" fill="#0077B5" fill-opacity="0.1"/>
<circle cx="27.4727" cy="48.6546" r="2.47273" fill="#0077B5" fill-opacity="0.1"/>
<circle cx="37.9818" cy="48.6546" r="2.47273" fill="#0077B5" fill-opacity="0.1"/>
<circle cx="48.4909" cy="48.6546" r="2.47273" fill="#0077B5" fill-opacity="0.1"/>
<circle cx="59" cy="48.6546" r="2.47273" fill="#0077B5" fill-opacity="0.1"/>
<circle cx="69.5091" cy="48.6546" r="2.47273" fill="#0077B5" fill-opacity="0.1"/>
<circle cx="80.0182" cy="48.6546" r="2.47273" fill="#0077B5" fill-opacity="0.1"/>
<circle cx="90.5273" cy="48.6546" r="2.47273" fill="#0077B5" fill-opacity="0.1"/>
<circle cx="27.4727" cy="57.3092" r="2.47273" fill="#0077B5" fill-opacity="0.1"/>
<circle cx="37.9818" cy="57.3092" r="2.47273" fill="#0077B5" fill-opacity="0.1"/>
<circle cx="48.4909" cy="57.3092" r="2.47273" fill="#0077B5" fill-opacity="0.1"/>
<circle cx="59" cy="57.3092" r="2.47273" fill="#0077B5" fill-opacity="0.1"/>
<circle cx="69.5091" cy="57.3092" r="2.47273" fill="#0077B5" fill-opacity="0.1"/>
<circle cx="80.0182" cy="57.3092" r="2.47273" fill="#0077B5" fill-opacity="0.1"/>
<circle cx="90.5273" cy="57.3092" r="2.47273" fill="#0077B5" fill-opacity="0.1"/>
<circle cx="27.4727" cy="65.9637" r="2.47273" fill="#0077B5" fill-opacity="0.1"/>
<circle cx="37.9818" cy="65.9637" r="2.47273" fill="#0077B5" fill-opacity="0.1"/>
<circle cx="48.4909" cy="65.9637" r="2.47273" fill="#0077B5" fill-opacity="0.1"/>
<circle cx="59" cy="65.9637" r="2.47273" fill="#0077B5" fill-opacity="0.1"/>
<circle cx="69.5091" cy="65.9637" r="2.47273" fill="#0077B5" fill-opacity="0.1"/>
<circle cx="80.0182" cy="65.9637" r="2.47273" fill="#0077B5" fill-opacity="0.1"/>
<circle cx="90.5273" cy="65.9637" r="2.47273" fill="#0077B5" fill-opacity="0.1"/>
<circle cx="27.4727" cy="74.6182" r="2.47273" fill="#0077B5" fill-opacity="0.1"/>
<circle cx="37.9818" cy="74.6181" r="2.47273" fill="#0077B5" fill-opacity="0.1"/>
<circle cx="48.4909" cy="74.6181" r="2.47273" fill="#0077B5" fill-opacity="0.1"/>
<circle cx="59" cy="74.6181" r="2.47273" fill="#0077B5" fill-opacity="0.1"/>
<circle cx="69.5091" cy="74.6181" r="2.47273" fill="#0077B5" fill-opacity="0.1"/>
<circle cx="80.0182" cy="74.6181" r="2.47273" fill="#0077B5" fill-opacity="0.1"/>
<circle cx="90.5273" cy="74.6181" r="2.47273" fill="#0077B5" fill-opacity="0.1"/>
<circle cx="27.4727" cy="83.2728" r="2.47273" fill="#0077B5" fill-opacity="0.1"/>
<circle cx="37.9818" cy="83.2728" r="2.47273" fill="#0077B5" fill-opacity="0.1"/>
<circle cx="48.4909" cy="83.2728" r="2.47273" fill="#0077B5" fill-opacity="0.1"/>
<circle cx="59" cy="83.2728" r="2.47273" fill="#0077B5" fill-opacity="0.1"/>
<circle cx="69.5091" cy="83.2728" r="2.47273" fill="#0077B5" fill-opacity="0.1"/>
<circle cx="80.0182" cy="83.2728" r="2.47273" fill="#0077B5" fill-opacity="0.1"/>
<circle cx="90.5273" cy="83.2728" r="2.47273" fill="#0077B5" fill-opacity="0.1"/>
<circle cx="27.4727" cy="32.3455" r="2.47273" fill="#0077B5" fill-opacity="0.1"/>
<circle cx="37.9818" cy="32.3455" r="2.47273" fill="#0077B5" fill-opacity="0.1"/>
<circle cx="48.4909" cy="32.3455" r="2.47273" fill="#0077B5" fill-opacity="0.1"/>
<circle cx="59" cy="32.3455" r="2.47273" fill="#0077B5" fill-opacity="0.1"/>
<circle cx="69.5091" cy="32.3455" r="2.47273" fill="#0077B5" fill-opacity="0.1"/>
<circle cx="80.0182" cy="32.3455" r="2.47273" fill="#0077B5" fill-opacity="0.1"/>
<circle cx="90.5273" cy="32.3455" r="2.47273" fill="#0077B5" fill-opacity="0.1"/>
<rect y="0.872803" width="75.5027" height="75.5027" rx="20" fill="#EB5757"/>
<path d="M38 35.3728C41.866 35.3728 45 32.2388 45 28.3728C45 24.5068 41.866 21.3728 38 21.3728C34.134 21.3728 31 24.5068 31 28.3728C31 32.2388 34.134 35.3728 38 35.3728Z" stroke="white" stroke-width="4" stroke-linecap="round" stroke-linejoin="round"/>
<path d="M53.75 56.3728C53.75 47.6744 46.6984 40.6228 38 40.6228C29.3016 40.6228 22.25 47.6744 22.25 56.3728" stroke="white" stroke-width="4" stroke-linecap="round" stroke-linejoin="round"/>
<path d="M38 56.3728L41.5 51.9978L38 40.6228L34.5 51.9978L38 56.3728Z" stroke="white" stroke-width="4" stroke-linecap="round" stroke-linejoin="round"/>
</svg>
