<svg width="95" height="83" viewBox="0 0 95 83" fill="none" xmlns="http://www.w3.org/2000/svg">
<circle cx="29.4727" cy="28.4727" r="2.47273" fill="#F2994A" fill-opacity="0.1"/>
<circle cx="39.9818" cy="28.4728" r="2.47273" fill="#F2994A" fill-opacity="0.1"/>
<circle cx="50.4909" cy="28.4728" r="2.47273" fill="#F2994A" fill-opacity="0.1"/>
<circle cx="61" cy="28.4728" r="2.47273" fill="#F2994A" fill-opacity="0.1"/>
<circle cx="71.5091" cy="28.4728" r="2.47273" fill="#F2994A" fill-opacity="0.1"/>
<circle cx="82.0182" cy="28.4728" r="2.47273" fill="#F2994A" fill-opacity="0.1"/>
<circle cx="92.5273" cy="28.4728" r="2.47273" fill="#F2994A" fill-opacity="0.1"/>
<circle cx="29.4727" cy="37.1273" r="2.47273" fill="#F2994A" fill-opacity="0.1"/>
<circle cx="39.9818" cy="37.1273" r="2.47273" fill="#F2994A" fill-opacity="0.1"/>
<circle cx="50.4909" cy="37.1273" r="2.47273" fill="#F2994A" fill-opacity="0.1"/>
<circle cx="61" cy="37.1273" r="2.47273" fill="#F2994A" fill-opacity="0.1"/>
<circle cx="71.5091" cy="37.1273" r="2.47273" fill="#F2994A" fill-opacity="0.1"/>
<circle cx="82.0182" cy="37.1273" r="2.47273" fill="#F2994A" fill-opacity="0.1"/>
<circle cx="92.5273" cy="37.1273" r="2.47273" fill="#F2994A" fill-opacity="0.1"/>
<circle cx="29.4727" cy="45.7818" r="2.47273" fill="#F2994A" fill-opacity="0.1"/>
<circle cx="39.9818" cy="45.7819" r="2.47273" fill="#F2994A" fill-opacity="0.1"/>
<circle cx="50.4909" cy="45.7819" r="2.47273" fill="#F2994A" fill-opacity="0.1"/>
<circle cx="61" cy="45.7819" r="2.47273" fill="#F2994A" fill-opacity="0.1"/>
<circle cx="71.5091" cy="45.7819" r="2.47273" fill="#F2994A" fill-opacity="0.1"/>
<circle cx="82.0182" cy="45.7819" r="2.47273" fill="#F2994A" fill-opacity="0.1"/>
<circle cx="92.5273" cy="45.7819" r="2.47273" fill="#F2994A" fill-opacity="0.1"/>
<circle cx="29.4727" cy="54.4364" r="2.47273" fill="#F2994A" fill-opacity="0.1"/>
<circle cx="39.9818" cy="54.4364" r="2.47273" fill="#F2994A" fill-opacity="0.1"/>
<circle cx="50.4909" cy="54.4364" r="2.47273" fill="#F2994A" fill-opacity="0.1"/>
<circle cx="61" cy="54.4364" r="2.47273" fill="#F2994A" fill-opacity="0.1"/>
<circle cx="71.5091" cy="54.4364" r="2.47273" fill="#F2994A" fill-opacity="0.1"/>
<circle cx="82.0182" cy="54.4364" r="2.47273" fill="#F2994A" fill-opacity="0.1"/>
<circle cx="92.5273" cy="54.4364" r="2.47273" fill="#F2994A" fill-opacity="0.1"/>
<circle cx="29.4727" cy="63.0909" r="2.47273" fill="#F2994A" fill-opacity="0.1"/>
<circle cx="39.9818" cy="63.091" r="2.47273" fill="#F2994A" fill-opacity="0.1"/>
<circle cx="50.4909" cy="63.091" r="2.47273" fill="#F2994A" fill-opacity="0.1"/>
<circle cx="61" cy="63.091" r="2.47273" fill="#F2994A" fill-opacity="0.1"/>
<circle cx="71.5091" cy="63.091" r="2.47273" fill="#F2994A" fill-opacity="0.1"/>
<circle cx="82.0182" cy="63.091" r="2.47273" fill="#F2994A" fill-opacity="0.1"/>
<circle cx="92.5273" cy="63.091" r="2.47273" fill="#F2994A" fill-opacity="0.1"/>
<circle cx="29.4727" cy="71.7454" r="2.47273" fill="#F2994A" fill-opacity="0.1"/>
<circle cx="39.9818" cy="71.7454" r="2.47273" fill="#F2994A" fill-opacity="0.1"/>
<circle cx="50.4909" cy="71.7454" r="2.47273" fill="#F2994A" fill-opacity="0.1"/>
<circle cx="61" cy="71.7454" r="2.47273" fill="#F2994A" fill-opacity="0.1"/>
<circle cx="71.5091" cy="71.7454" r="2.47273" fill="#F2994A" fill-opacity="0.1"/>
<circle cx="82.0182" cy="71.7454" r="2.47273" fill="#F2994A" fill-opacity="0.1"/>
<circle cx="92.5273" cy="71.7454" r="2.47273" fill="#F2994A" fill-opacity="0.1"/>
<circle cx="29.4727" cy="80.4" r="2.47273" fill="#F2994A" fill-opacity="0.1"/>
<circle cx="39.9818" cy="80.3999" r="2.47273" fill="#F2994A" fill-opacity="0.1"/>
<circle cx="50.4909" cy="80.3999" r="2.47273" fill="#F2994A" fill-opacity="0.1"/>
<circle cx="61" cy="80.3999" r="2.47273" fill="#F2994A" fill-opacity="0.1"/>
<circle cx="71.5091" cy="80.3999" r="2.47273" fill="#F2994A" fill-opacity="0.1"/>
<circle cx="82.0182" cy="80.3999" r="2.47273" fill="#F2994A" fill-opacity="0.1"/>
<circle cx="92.5273" cy="80.3999" r="2.47273" fill="#F2994A" fill-opacity="0.1"/>
<rect width="75.5027" height="75.5027" rx="23.3514" fill="#F2994A"/>
<g clip-path="url(#clip0_35_444)">
<path d="M20.0374 17L18 19.0374L21.5891 25.2443L23.9167 24.903L38.1244 39.1121L36.9125 40.2759C36.2918 40.8966 36.2918 41.837 36.9125 42.4577L37.5425 43.0892C38.1632 43.7099 39.1128 43.7099 39.5783 43.0892L41.4218 44.9311C41.2666 45.8622 41.4218 46.9685 42.1977 47.7444L50.5863 56.0849C52.2932 57.7919 55.0863 57.7919 56.7932 56.0849C58.8105 54.2229 58.7919 51.4391 57.085 49.7322L48.7444 41.342C47.9685 40.5661 46.8622 40.2558 45.9311 40.5661L43.8937 38.7242C44.3592 38.1035 44.3592 37.1539 43.8937 36.6868L43.3118 36.1064C43.1707 35.9593 43.0014 35.8423 42.8139 35.7623C42.6265 35.6824 42.4247 35.6411 42.2209 35.6411C42.0171 35.6411 41.8154 35.6824 41.628 35.7623C41.4405 35.8423 41.2711 35.9593 41.1301 36.1064L40.1121 37.1244L25.9045 22.9167L26.2428 20.5891L20.0359 17L20.0374 17ZM50.2961 17.0481C47.2346 16.7936 43.1753 18.8233 41.2759 20.5876C38.939 22.9245 39.3208 25.9799 41.1782 28.9297L37.8823 32.2271L40.2099 34.8449C41.4513 33.7587 43.2823 33.7587 44.5237 34.8449L45.1553 35.4749L45.3011 35.6207L46.6589 34.263C49.4644 35.9125 52.3848 36.1499 54.6115 33.9232C56.7839 31.9059 59.1394 26.9311 58.0532 23.9828L53.6898 28.4921C53.0691 29.1128 52.1287 29.1128 51.508 28.4921L46.9972 23.9828C46.8501 23.8417 46.733 23.6724 46.653 23.4849C46.5731 23.2974 46.5319 23.0957 46.5319 22.8919C46.5319 22.6881 46.5731 22.4864 46.653 22.2989C46.733 22.1115 46.8501 21.9421 46.9972 21.801L51.5096 17.2917C51.1217 17.1552 50.7337 17.0853 50.2961 17.0481ZM33.2271 36.3966L27.6005 42.0216C26.9959 41.8873 26.378 41.8222 25.7586 41.8277C21.4138 41.8277 18 45.2415 18 49.5863C18 53.9311 21.4138 57.345 25.7586 57.345C30.1035 57.345 33.5173 53.9311 33.5173 49.5863C33.5173 48.7903 33.3916 48.0253 33.1775 47.3068L36.4749 44.0094L35.9907 43.3794C34.7494 42.138 34.7587 40.2573 35.8449 39.0144L33.2256 36.3966H33.2271ZM45.253 43.4772C45.447 43.4772 45.6301 43.5144 45.7853 43.6711L54.9513 52.8356C55.2617 53.146 55.2617 53.6394 54.9513 53.9498C54.641 54.2601 54.1444 54.2601 53.8341 53.9498L44.6711 44.7853C44.3608 44.4749 44.3608 43.9815 44.6711 43.6711C44.8263 43.5159 45.0591 43.4772 45.253 43.4772ZM26.8262 45.5596L29.7838 48.5187L28.7162 52.5424L24.6926 53.6099L21.7335 50.6508L22.801 46.6272L26.8262 45.5596V45.5596Z" fill="white"/>
</g>
<defs>
<clipPath id="clip0_35_444">
<rect width="40.345" height="40.345" fill="white" transform="translate(18 18)"/>
</clipPath>
</defs>
</svg>
