<svg width="95" height="84" viewBox="0 0 95 84" fill="none" xmlns="http://www.w3.org/2000/svg">
<circle cx="29.4727" cy="29.3455" r="2.47273" fill="#0077B5" fill-opacity="0.1"/>
<circle cx="39.9818" cy="29.3455" r="2.47273" fill="#0077B5" fill-opacity="0.1"/>
<circle cx="50.4909" cy="29.3455" r="2.47273" fill="#0077B5" fill-opacity="0.1"/>
<circle cx="61" cy="29.3455" r="2.47273" fill="#0077B5" fill-opacity="0.1"/>
<circle cx="71.5091" cy="29.3455" r="2.47273" fill="#0077B5" fill-opacity="0.1"/>
<circle cx="82.0182" cy="29.3455" r="2.47273" fill="#0077B5" fill-opacity="0.1"/>
<circle cx="92.5273" cy="29.3455" r="2.47273" fill="#0077B5" fill-opacity="0.1"/>
<circle cx="29.4727" cy="38.0001" r="2.47273" fill="#0077B5" fill-opacity="0.1"/>
<circle cx="39.9818" cy="38.0001" r="2.47273" fill="#0077B5" fill-opacity="0.1"/>
<circle cx="50.4909" cy="38.0001" r="2.47273" fill="#0077B5" fill-opacity="0.1"/>
<circle cx="61" cy="38.0001" r="2.47273" fill="#0077B5" fill-opacity="0.1"/>
<circle cx="71.5091" cy="38.0001" r="2.47273" fill="#0077B5" fill-opacity="0.1"/>
<circle cx="82.0182" cy="38.0001" r="2.47273" fill="#0077B5" fill-opacity="0.1"/>
<circle cx="92.5273" cy="38.0001" r="2.47273" fill="#0077B5" fill-opacity="0.1"/>
<circle cx="29.4727" cy="46.6546" r="2.47273" fill="#0077B5" fill-opacity="0.1"/>
<circle cx="39.9818" cy="46.6546" r="2.47273" fill="#0077B5" fill-opacity="0.1"/>
<circle cx="50.4909" cy="46.6546" r="2.47273" fill="#0077B5" fill-opacity="0.1"/>
<circle cx="61" cy="46.6546" r="2.47273" fill="#0077B5" fill-opacity="0.1"/>
<circle cx="71.5091" cy="46.6546" r="2.47273" fill="#0077B5" fill-opacity="0.1"/>
<circle cx="82.0182" cy="46.6546" r="2.47273" fill="#0077B5" fill-opacity="0.1"/>
<circle cx="92.5273" cy="46.6546" r="2.47273" fill="#0077B5" fill-opacity="0.1"/>
<circle cx="29.4727" cy="55.3092" r="2.47273" fill="#0077B5" fill-opacity="0.1"/>
<circle cx="39.9818" cy="55.3092" r="2.47273" fill="#0077B5" fill-opacity="0.1"/>
<circle cx="50.4909" cy="55.3092" r="2.47273" fill="#0077B5" fill-opacity="0.1"/>
<circle cx="61" cy="55.3092" r="2.47273" fill="#0077B5" fill-opacity="0.1"/>
<circle cx="71.5091" cy="55.3092" r="2.47273" fill="#0077B5" fill-opacity="0.1"/>
<circle cx="82.0182" cy="55.3092" r="2.47273" fill="#0077B5" fill-opacity="0.1"/>
<circle cx="92.5273" cy="55.3092" r="2.47273" fill="#0077B5" fill-opacity="0.1"/>
<circle cx="29.4727" cy="63.9637" r="2.47273" fill="#0077B5" fill-opacity="0.1"/>
<circle cx="39.9818" cy="63.9637" r="2.47273" fill="#0077B5" fill-opacity="0.1"/>
<circle cx="50.4909" cy="63.9637" r="2.47273" fill="#0077B5" fill-opacity="0.1"/>
<circle cx="61" cy="63.9637" r="2.47273" fill="#0077B5" fill-opacity="0.1"/>
<circle cx="71.5091" cy="63.9637" r="2.47273" fill="#0077B5" fill-opacity="0.1"/>
<circle cx="82.0182" cy="63.9637" r="2.47273" fill="#0077B5" fill-opacity="0.1"/>
<circle cx="92.5273" cy="63.9637" r="2.47273" fill="#0077B5" fill-opacity="0.1"/>
<circle cx="29.4727" cy="72.6182" r="2.47273" fill="#0077B5" fill-opacity="0.1"/>
<circle cx="39.9818" cy="72.6181" r="2.47273" fill="#0077B5" fill-opacity="0.1"/>
<circle cx="50.4909" cy="72.6181" r="2.47273" fill="#0077B5" fill-opacity="0.1"/>
<circle cx="61" cy="72.6181" r="2.47273" fill="#0077B5" fill-opacity="0.1"/>
<circle cx="71.5091" cy="72.6181" r="2.47273" fill="#0077B5" fill-opacity="0.1"/>
<circle cx="82.0182" cy="72.6181" r="2.47273" fill="#0077B5" fill-opacity="0.1"/>
<circle cx="92.5273" cy="72.6181" r="2.47273" fill="#0077B5" fill-opacity="0.1"/>
<circle cx="29.4727" cy="81.2728" r="2.47273" fill="#0077B5" fill-opacity="0.1"/>
<circle cx="39.9818" cy="81.2728" r="2.47273" fill="#0077B5" fill-opacity="0.1"/>
<circle cx="50.4909" cy="81.2728" r="2.47273" fill="#0077B5" fill-opacity="0.1"/>
<circle cx="61" cy="81.2728" r="2.47273" fill="#0077B5" fill-opacity="0.1"/>
<circle cx="71.5091" cy="81.2728" r="2.47273" fill="#0077B5" fill-opacity="0.1"/>
<circle cx="82.0182" cy="81.2728" r="2.47273" fill="#0077B5" fill-opacity="0.1"/>
<circle cx="92.5273" cy="81.2728" r="2.47273" fill="#0077B5" fill-opacity="0.1"/>
<rect y="0.872803" width="75.5027" height="75.5027" rx="23.3514" fill="#56CCF2"/>
<path d="M24 47.6228V49.3728H29.25V28.3728H24V44.1228H25.75V47.6228H24ZM22.25 24.8728H31C31.4641 24.8728 31.9092 25.0572 32.2374 25.3854C32.5656 25.7136 32.75 26.1587 32.75 26.6228V51.1228C32.75 51.5869 32.5656 52.0321 32.2374 52.3602C31.9092 52.6884 31.4641 52.8728 31 52.8728H22.25C21.7859 52.8728 21.3408 52.6884 21.0126 52.3602C20.6844 52.0321 20.5 51.5869 20.5 51.1228V26.6228C20.5 26.1587 20.6844 25.7136 21.0126 25.3854C21.3408 25.0572 21.7859 24.8728 22.25 24.8728V24.8728ZM38 30.1228H52C52.9283 30.1228 53.8185 30.4916 54.4749 31.1479C55.1313 31.8043 55.5 32.6945 55.5 33.6228V44.1228C55.5 45.0511 55.1313 45.9413 54.4749 46.5977C53.8185 47.2541 52.9283 47.6228 52 47.6228H38C37.0717 47.6228 36.1815 47.2541 35.5251 46.5977C34.8687 45.9413 34.5 45.0511 34.5 44.1228V33.6228C34.5 32.6945 34.8687 31.8043 35.5251 31.1479C36.1815 30.4916 37.0717 30.1228 38 30.1228ZM38 33.6228V44.1228H52V33.6228H38ZM41.5 49.3728H48.5C48.9641 49.3728 49.4092 49.5572 49.7374 49.8854C50.0656 50.2136 50.25 50.6587 50.25 51.1228C50.25 51.5869 50.0656 52.0321 49.7374 52.3602C49.4092 52.6884 48.9641 52.8728 48.5 52.8728H41.5C41.0359 52.8728 40.5908 52.6884 40.2626 52.3602C39.9344 52.0321 39.75 51.5869 39.75 51.1228C39.75 50.6587 39.9344 50.2136 40.2626 49.8854C40.5908 49.5572 41.0359 49.3728 41.5 49.3728V49.3728Z" fill="white"/>
</svg>
